<svg width="200" height="123" viewBox="0 0 200 123" fill="none" xmlns="http://www.w3.org/2000/svg">
<path fill-rule="evenodd" clip-rule="evenodd" d="M0.675085 20.2024C6.68442 -26.1134 36.6709 21.5088 85.3088 22.9195C133.947 24.3521 182.831 -20.9702 176.832 25.3456C170.834 71.6614 126.527 108.064 77.8887 106.637C29.2563 105.221 -5.31785 66.5128 0.675085 20.2024Z" transform="translate(22.6667 15.5446)" fill="#6DA839"/>
<path fill-rule="evenodd" clip-rule="evenodd" d="M176.643 20.1968C170.644 -26.108 140.658 21.5032 92.0199 22.9358C43.3875 24.341 -5.50196 -20.9759 0.501911 25.3455C6.50031 71.6613 50.8075 108.059 99.44 106.642C148.072 105.221 182.647 66.5181 176.643 20.1968Z" fill="#EF5A22"/>
<path fill-rule="evenodd" clip-rule="evenodd" d="M9.02283 66.4042C27.2149 82.2892 51.4053 91.8345 76.7714 91.099C124.748 89.6993 159.038 52.0066 154.193 6.53063C136.493 11.5091 110.864 23.6726 85.3015 22.9207C36.6691 21.5045 6.68252 -26.1122 0.667717 20.2036C-1.50308 37.0986 1.70664 52.9672 9.02283 66.4042Z" transform="translate(22.6686 15.5434)" fill="#034692"/>
<path d="M12.8553 10.3302C14.6378 10.3302 16.3056 10.6596 17.853 11.3347C19.395 11.9989 20.7456 12.921 21.9103 14.0847C23.075 15.2483 23.9881 16.6041 24.6552 18.1465C25.3223 19.7108 25.6559 21.3795 25.6559 23.1689C25.6559 24.9363 25.3223 26.594 24.6552 28.1693C23.9881 29.7337 23.0804 31.1114 21.9103 32.297C20.7511 33.4826 19.4005 34.4158 17.8585 35.0744C16.3111 35.7441 14.6433 36.0844 12.8607 36.0844C11.1 36.0844 9.44871 35.7496 7.88486 35.0744C6.32101 34.4158 4.94307 33.4826 3.76198 32.297C2.58636 31.1114 1.6568 29.7337 0.995176 28.1693C0.322612 26.594 0 24.9418 0 23.1744V-6.70039e-07H5.08524V10.3302H12.8553ZM12.8553 30.9797C13.9215 30.9797 14.9112 30.7766 15.8517 30.3814C16.7758 29.9807 17.6015 29.4263 18.3014 28.7182C19.0013 28.0102 19.5645 27.1758 19.9637 26.2153C20.3628 25.2547 20.5597 24.2502 20.5597 23.1689C20.5597 22.104 20.3628 21.105 19.9637 20.1664C19.5645 19.2278 19.0013 18.4045 18.3014 17.7019C17.6015 16.9883 16.7704 16.4394 15.8517 16.0223C14.9058 15.6271 13.9161 15.4295 12.8553 15.4295H5.07977V23.1689C5.07977 24.2502 5.27115 25.2547 5.67579 26.2153C6.08042 27.1703 6.63816 28.0102 7.33259 28.7182C8.03797 29.4263 8.87457 29.9807 9.82053 30.3814C10.7829 30.7766 11.7835 30.9797 12.8553 30.9797ZM47.3092 26.9069L50.9126 30.5296L49.1464 32.308C47.9216 33.532 46.5327 34.4652 44.9689 35.1184C43.4159 35.7715 41.7701 36.0954 40.0641 36.0954C38.3416 36.0954 36.7012 35.7715 35.1374 35.1184C33.579 34.4652 32.1901 33.532 30.9598 32.308C29.7131 31.051 28.7726 29.6239 28.1711 28.0266C27.5533 26.4513 27.2471 24.832 27.2471 23.1799C27.2471 21.5387 27.5533 19.9359 28.1711 18.3661C28.7726 16.7962 29.7077 15.3801 30.9598 14.1176C32.2229 12.8606 33.6446 11.911 35.2249 11.2743C36.8051 10.6541 38.4182 10.3357 40.0641 10.3357C41.6935 10.3357 43.3011 10.6486 44.8868 11.2743C46.4671 11.911 47.8888 12.8606 49.1464 14.1231L50.9126 15.9015L36.6848 30.1893C38.1284 30.9083 39.6649 31.1553 41.2889 30.9028C42.9074 30.6558 44.3236 29.9203 45.543 28.7018L47.3092 26.9069ZM34.5687 17.669C33.0431 19.2059 32.2776 21.0392 32.2776 23.1744C32.2776 24.371 32.551 25.4962 33.0814 26.572C33.5353 26.1165 34.2352 25.4084 35.1647 24.4808C36.0943 23.5421 37.0895 22.5486 38.1339 21.4893C39.1837 20.4354 40.1898 19.4364 41.1631 18.4813C42.1419 17.5262 42.8965 16.7797 43.4269 16.2418C41.9833 15.5173 40.4413 15.2648 38.8228 15.4953C37.2043 15.7314 35.7826 16.4504 34.5687 17.669ZM52.6787 10.2095H57.7148V35.9746H52.6787V10.2095ZM59.3716 23.1195C59.3716 21.3246 59.7051 19.6505 60.3722 18.0971C61.0393 16.5547 61.9525 15.1934 63.1117 14.0298C64.2764 12.8606 65.6379 11.9385 67.2017 11.2688C68.7711 10.6102 70.4169 10.2753 72.1776 10.2753C73.9766 10.2753 75.6389 10.6102 77.1754 11.2743C78.7228 11.9495 80.0844 12.8716 81.2655 14.0353C82.4411 15.1989 83.3706 16.5547 84.0323 18.1026C84.7048 19.656 85.0329 21.3301 85.0329 23.125V36.035H79.9531V23.125C79.9531 22.0601 79.7453 21.0502 79.3517 20.117C78.9525 19.1729 78.4057 18.3551 77.6948 17.6525C76.9949 16.9444 76.1638 16.3955 75.2124 15.9948C74.2555 15.5832 73.2494 15.3801 72.1831 15.3801C71.1168 15.3801 70.1107 15.5777 69.1866 15.9948C68.2461 16.3955 67.4259 16.9444 66.726 17.6525C66.0261 18.3551 65.4629 19.1729 65.0692 20.117C64.6646 21.0502 64.4677 22.0601 64.4677 23.125V36.035H59.388V23.1195H59.3716ZM99.545 10.2095C101.344 10.2095 103.001 10.5553 104.548 11.2194C106.09 11.8946 107.441 12.8057 108.611 13.9694C109.765 15.1331 110.678 16.4943 111.345 18.0532C112.018 19.6011 112.351 21.2697 112.351 23.0701V33.3948C112.351 35.1897 112.018 36.8584 111.345 38.4117C110.678 39.9596 109.765 41.3319 108.611 42.5175C107.441 43.7086 106.09 44.6307 104.548 45.2894C103.001 45.97 101.344 46.2994 99.545 46.2994H96.9696V41.2001H99.545C101.256 41.2001 102.771 40.7061 104.089 39.7346C105.407 38.763 106.32 37.5061 106.861 35.9746H99.545C97.7898 35.9746 96.1384 35.6398 94.5746 34.9647C93.0107 34.295 91.6437 33.3729 90.4572 32.1873C89.2761 31.0016 88.3575 29.6239 87.6849 28.0596C87.0123 26.4897 86.6842 24.8266 86.6842 23.0646C86.6842 21.2642 87.0123 19.5956 87.6849 18.0477C88.3575 16.4888 89.2761 15.1331 90.4572 13.9694C91.6437 12.8057 93.0107 11.8946 94.5746 11.2194C96.1384 10.5553 97.7898 10.2095 99.545 10.2095ZM91.7695 23.0646C91.7695 24.1404 91.9718 25.1504 92.3764 26.111C92.7701 27.0661 93.3224 27.8839 94.0332 28.603C94.7386 29.311 95.5588 29.8654 96.5212 30.2551C97.4671 30.6558 98.4842 30.8589 99.5505 30.8589H107.32V23.0646C107.32 21.9943 107.124 20.9898 106.724 20.0512C106.32 19.1235 105.773 18.2892 105.068 17.5811C104.368 16.8731 103.531 16.3187 102.58 15.9235C101.623 15.5173 100.628 15.3087 99.5559 15.3087C98.4951 15.3087 97.4781 15.5173 96.5266 15.9235C95.5697 16.3187 94.7441 16.8731 94.0387 17.5811C93.3333 18.2892 92.7811 19.1235 92.3874 20.0512C91.9718 20.9898 91.7695 21.9997 91.7695 23.0646Z" transform="translate(39.9153 40.0833)" fill="white"/>
</svg>
